<?xml version="1.0" encoding="utf-8"?>
<!-- Generator: Adobe Illustrator 16.0.0, SVG Export Plug-In . SVG Version: 6.00 Build 0)  -->
<!DOCTYPE svg PUBLIC "-//W3C//DTD SVG 1.1//EN" "http://www.w3.org/Graphics/SVG/1.1/DTD/svg11.dtd">
<svg version="1.1" id="Layer_1" xmlns="http://www.w3.org/2000/svg" xmlns:xlink="http://www.w3.org/1999/xlink" x="0px" y="0px"
	 width="900px" height="900px" viewBox="0 0 900 900" enable-background="new 0 0 900 900" xml:space="preserve">
<g id="Layer_6">
	<g id="Layer_1_1_">
	</g>
	<g id="Graph">
	</g>
	<g id="Layer_5">
	</g>
	<g id="Layer_3">
		<g id="Layer_4">
		</g>
	</g>
</g>
<g id="BatteryFrond">
	<polygon opacity="0.8" fill="#B3B4B4" enable-background="new    " points="764.936,285.099 751.439,548.086 367,756.5 
		353.668,481 	"/>
	<polygon fill="#A0A0A0" points="163.467,310.598 211.465,564.085 367,756.5 354.333,486 	"/>
</g>
<g id="BatEdge">
	<polygon fill="#5F6060" points="775.436,280.599 776.936,249.101 337.459,448.59 350.75,487.75 	"/>
	<polygon fill="#353637" points="151.488,270.304 153,300.2 350.75,487.75 348,446 	"/>
</g>
<g id="FlatTop">
	<polygon fill="#853839" points="776.936,249.101 547.5,123.5 151.488,270.304 348,446 	"/>
</g>
<g id="TopEdge">
	<polygon fill="#B5B5B6" points="686.5,192 687.334,216.333 631.668,242.667 609.336,212.667 	"/>
	<polygon fill="#666766" points="176,269 306.336,381.667 326,357 175.465,238.601 	"/>
	<polyline fill="#B3B4B4" points="303.668,341 403.668,300.333 405.002,335.667 306.336,381.667 	"/>
	<polygon fill="#B3B4B4" points="454.951,338.096 673.5,244.5 672,275 454.5,374.5 	"/>
</g>
<g id="BatTop">
	<polygon fill="#2A2C2C" points="175.465,238.601 303.668,341 402,300.25 454.5,338 673.5,244.5 633.75,216.75 686.5,192 
		544.947,108.607 	"/>
	<polygon fill="#666766" points="402,300.25 405.002,335.667 454.5,374.5 455.002,338.5 	"/>
</g>
<g id="Prong">
	<polygon fill="#C2CACE" points="347.275,314.383 350.234,384.156 381,412.333 381,334.509 	"/>
	<polygon fill="#F0E4EA" points="397.072,328.388 381.433,334.509 347.491,314.383 367.324,309.519 	"/>
	<polygon fill="#F0E4EA" points="399.209,406.632 381,412.333 381,334.509 396.748,328.388 	"/>
	<polygon fill="#C2CACE" points="679.059,194.276 681.01,242.481 705,259.167 705,205.4 	"/>
	<polygon fill="#D6E1E7" points="716.67,201.17 705.23,205.887 679.059,194.276 694.065,190.916 	"/>
	<polygon fill="#D6E1E7" points="718.668,255.229 705,259.167 705,205.4 716.674,201.17 	"/>
	<polygon fill="#853839" points="360.65,342.704 366.529,345.148 366.093,354.173 372.395,357.636 371.938,365.773 366.352,363.902 
		366.203,371.119 360,368.553 360,361.566 354,359.004 354,350.388 359.945,353.183 	"/>
	<polygon fill="#2E358F" points="696.508,218.618 684.957,214.374 684.721,219.796 696.271,223.333 	"/>
</g>
<g id="Detail">
	<polygon fill="#853839" points="465.5,373.5 466.834,351 550.75,314.25 569.625,323.25 	"/>
	<polyline fill="#535454" points="568.25,322.562 567.998,306.834 549.75,314.75 	"/>
	<polygon fill="#853839" points="576.416,323.5 575.75,303.625 652,269.25 668.5,278.125 	"/>
	<polyline fill="#535454" points="667,277.25 666.938,262.625 652,269.25 	"/>
</g>
<g id="GlassDetail">
</g>
<g id="BatteryLayer">
</g>
<g id="Glass">
	<polygon fill="#D4D4D4" points="740.352,543.081 376,737 364.334,499.668 568,401 	"/>
	<polygon fill="#565757" points="567,402 739.352,544.081 753.5,291 565.803,382.252 362,481.334 363.334,500.668 	"/>
</g>
<g id="Layer_22">
	<g>
		<g>
			<g>
				<defs>
					<polygon id="SVGID_1_" points="755,288 740,538 380,734 364,475 					"/>
				</defs>
				<clipPath id="SVGID_2_">
					<use xlink:href="#SVGID_1_"  overflow="visible"/>
				</clipPath>
				<g clip-path="url(#SVGID_2_)">
					<polygon fill="#9C1C20" points="731.668,479.667 531.002,343 227.668,519.667 388.334,658.334 					"/>
					<polygon fill="#CDA609" points="736.666,402.667 666.334,439 504.334,301 582.334,270 					"/>
					<polygon fill="#C09C08" points="661.002,452.333 654.834,456.167 495.5,315.833 500.668,314 					"/>
					<polygon fill="#CDA609" points="504.334,301 500.668,314 661.002,452.333 666.834,439.167 					"/>
					<polygon fill="#C09C08" points="647.502,448.667 620.166,521.333 458.334,382.667 486.002,311.335 					"/>
					<polygon fill="#CDA609" points="300.5,405.5 461.334,544.417 604,471.499 443,333 					"/>
					<polygon fill="#278C39" points="739.668,338.333 577.668,200.667 551.336,256.667 713.668,395 					"/>
					<polygon fill="#2B933C" points="509.668,290.666 671,429.375 683.125,401.625 522.002,264 					"/>
					<polygon fill="#309C40" points="585,424 557.5,438 396,299 424,286 					"/>
					<polygon fill="#2A923B" points="502.334,497.5 535.5,412 375,272 341.5,359 					"/>
					<polygon fill="#309C40" points="480,494.5 502.002,496.667 341.5,359 318.5,357 					"/>
					<polygon fill="#2A923B" points="462.666,533.834 302,395 318.5,356 480,493.5 					"/>
					<polygon fill="#C09C08" points="391.002,647.667 229.002,509 242.334,455.667 402.334,595.667 					"/>
					<polygon fill="#CDA609" points="449.002,573 402.334,595.667 242.334,455.667 289.002,433.667 					"/>
					<polygon fill="#C09C08" points="461.334,544.417 449.002,573 286.334,433.667 300.5,405.5 					"/>
					<polygon fill="#90181B" points="377.002,724.334 388.334,658.334 227.668,519.667 217.002,559.667 					"/>
					<polygon fill="#EFC109" points="649,448 647.502,448.667 486.002,311.335 488.5,310 					"/>
					<polygon fill="#3BB54A" points="709,394.5 713.668,395 551.336,256.667 544.336,251.333 					"/>
					<polygon fill="#309C40" points="544.336,251.333 522.002,264 683.125,401.625 706.125,389.375 					"/>
				</g>
			</g>
		</g>
		<g>
			<g>
				<defs>
					<polygon id="SVGID_3_" points="755,288 740,538 380,734 364,475 					"/>
				</defs>
				<clipPath id="SVGID_4_">
					<use xlink:href="#SVGID_3_"  overflow="visible"/>
				</clipPath>
				<polyline clip-path="url(#SVGID_4_)" fill="#3BB54A" points="713.312,394.938 706.125,389.375 544.336,251.333 551.336,256.667 
					713.668,395 				"/>
			</g>
		</g>
		<g>
			<g>
				<defs>
					<polygon id="SVGID_5_" points="755,288 740,538 380,734 364,475 					"/>
				</defs>
				<clipPath id="SVGID_6_">
					<use xlink:href="#SVGID_5_"  overflow="visible"/>
				</clipPath>
				<line clip-path="url(#SVGID_6_)" fill="none" x1="488.668" y1="310.001" x2="486.002" y2="311.335"/>
			</g>
		</g>
	</g>
</g>
<g id="Layer_19">
	<g>
		<g>
			<path fill="#3BB54A" d="M599.342,464.083c-4.537-13.556-9.15-27.082-13.846-40.584c-9.5,4.801-19.012,9.58-28.531,14.343
				c-6.91-9.454-13.865-18.874-20.822-28.293c-11.369,29.026-22.691,58.068-33.822,87.188c-8.883-1.251-13.378-1.871-22.512-3.088
				c-5.756,13.333-11.477,26.681-17.169,40.041C508.275,510.621,553.852,487.436,599.342,464.083z"/>
			<path fill="#3BB54A" d="M737.023,394.753c1.099-18.958,2.043-37.911,2.713-56.889c-8.702,19.065-17.529,38.07-26.404,57.056
				c-2.875-2.208-4.307-3.31-7.178-5.512c-9.338,4.96-13.941,7.396-23.047,12.206c-4.028,9.129-8.055,18.26-12.076,27.391
				C693.038,417.605,715.035,406.188,737.023,394.753z"/>
			<path fill="#FFCD05" d="M666.715,438.824c-2.296,5.229-3.438,7.842-5.713,13.056c-2.541,1.358-3.811,2.037-6.336,3.388
				c-2.277-2.911-3.416-4.368-5.701-7.276c-0.592,0.306-0.889,0.46-1.48,0.766c-9.287,24.012-18.449,48.066-27.396,72.208
				c-5.283-16.626-10.604-33.237-16.02-49.821c-47.547,24.479-95.145,48.863-142.812,73.108
				c-4.022,9.521-8.034,19.049-12.033,28.581c-15.493,7.31-30.995,14.602-46.503,21.889c-3.938,18.132-7.879,36.264-11.887,54.379
				c113.688-59.708,226.273-121.448,341.594-177.993c1.24-22.799,2.691-45.581,4.113-68.368
				C713.268,414.768,689.992,426.797,666.715,438.824z"/>
			<path fill="#C1272D" d="M388.793,658.242c-3.912,17.251-7.949,34.464-12.166,51.643c-1.801,7.229-2.725,10.854-4.627,18.115
				c118.995-63.936,235.639-132.06,358.504-188.494c-0.039-20.146,0.572-40.291,1.531-60.414
				C615.96,535.633,502.977,598.043,388.793,658.242z"/>
		</g>
	</g>
</g>
<g id="Layer_20">
	<polygon fill="#C7C7C7" points="367,756.5 379,736 365,480.334 354.336,485.667 	"/>
	<polygon fill="#5F6060" points="361.668,458.335 363.5,481 756.5,290 754.334,279.668 	"/>
</g>
</svg>
